<svg xmlns="http://www.w3.org/2000/svg" width="512" height="512" viewBox="0 0 512 512">
  <rect width="512" height="512" fill="none"/>
  <g opacity="0.12" stroke="#f0dfb5" stroke-width="1.2" stroke-linecap="round">
    <path d="M18 62c55 24 76 26 118 8 30-13 65-12 108 4 41 16 85 14 132-5 33-13 72-15 118-7"/>
    <path d="M-12 154c49 19 95 23 143 9 36-10 74-9 111 3 37 12 80 13 123 2 47-12 96-10 155 9"/>
    <path d="M10 245c48 16 88 18 126 6 39-12 87-13 130 0 44 14 91 16 140 8 37-7 72-6 106 2"/>
    <path d="M-8 338c43 14 82 15 120 4 47-14 93-14 139 0 45 14 93 16 140 6 37-8 77-8 121-1"/>
    <path d="M24 428c42 15 81 19 118 10 37-8 75-8 112 2 42 11 88 12 135 2 42-9 83-8 123 5"/>
  </g>
  <g fill="#130a03" opacity="0.12">
    <circle cx="72" cy="88" r="2.1"/><circle cx="119" cy="184" r="1.4"/><circle cx="168" cy="58" r="1.8"/><circle cx="230" cy="141" r="1.5"/><circle cx="308" cy="103" r="1.9"/><circle cx="391" cy="76" r="1.4"/><circle cx="456" cy="149" r="1.7"/>
    <circle cx="52" cy="284" r="1.9"/><circle cx="102" cy="358" r="1.4"/><circle cx="186" cy="246" r="1.6"/><circle cx="244" cy="312" r="1.4"/><circle cx="329" cy="287" r="2.0"/><circle cx="407" cy="334" r="1.6"/><circle cx="471" cy="262" r="1.5"/>
    <circle cx="90" cy="454" r="1.7"/><circle cx="153" cy="420" r="1.5"/><circle cx="266" cy="447" r="1.8"/><circle cx="351" cy="412" r="1.4"/><circle cx="434" cy="458" r="1.9"/>
  </g>
  <g fill="none" stroke="#000" opacity="0.08" stroke-width="18" stroke-linecap="round">
    <path d="M10 42c55 21 104 22 145 5"/>
    <path d="M352 174c44 12 83 14 126 5"/>
    <path d="M70 382c47 12 94 13 142 2"/>
  </g>
</svg>