<svg xmlns="http://www.w3.org/2000/svg" width="800" height="800" viewBox="0 0 800 800">
  <rect width="800" height="800" fill="none"/>
  <g opacity="0.11" stroke="#e8f1d2" stroke-width="1.2" fill="none" stroke-linecap="round">
    <path d="M26 144c58-42 116-54 181-36 46 13 88 17 126 11 44-8 84-28 125-58"/>
    <path d="M110 282c62-30 123-31 182-3 55 27 110 36 163 28 63-9 120-34 170-76"/>
    <path d="M-8 427c74-20 138-8 191 34 49 38 99 55 151 51 70-5 130-35 183-92"/>
    <path d="M78 622c71-19 133-9 186 29 53 38 102 55 149 51 58-5 111-31 161-79"/>
    <path d="M566 98c-31 50-73 88-125 112-37 18-78 27-123 27"/>
    <path d="M688 284c-24 42-60 77-108 104-46 25-98 37-157 35"/>
    <path d="M686 520c-29 49-69 87-121 113-39 19-82 27-131 24"/>
  </g>
  <g opacity="0.08" stroke="#f5f7e6" stroke-width="0.8" fill="none">
    <path d="M111 248c40 26 74 60 104 103"/>
    <path d="M258 157c27 33 45 70 54 112"/>
    <path d="M486 237c-22 42-30 85-24 130"/>
    <path d="M618 387c-28 33-48 70-58 111"/>
    <path d="M299 519c28 37 46 79 52 127"/>
  </g>
</svg>