<svg xmlns="http://www.w3.org/2000/svg" width="512" height="512" viewBox="0 0 512 512">
  <rect width="512" height="512" fill="none"/>
  <g opacity="0.10" stroke="#6f7b62" stroke-width="1" stroke-linecap="round">
    <path d="M34 56l21 7"/><path d="M78 91l16 8"/><path d="M126 70l18 5"/><path d="M160 118l14 10"/><path d="M216 84l19 8"/><path d="M274 102l17 6"/><path d="M329 74l18 8"/><path d="M378 112l14 8"/><path d="M428 86l17 7"/>
    <path d="M46 174l20 6"/><path d="M108 155l14 7"/><path d="M162 193l16 7"/><path d="M222 164l18 8"/><path d="M292 186l13 6"/><path d="M354 163l18 9"/><path d="M412 181l16 5"/>
    <path d="M64 282l19 7"/><path d="M126 258l15 8"/><path d="M185 296l18 7"/><path d="M247 272l16 8"/><path d="M316 292l14 6"/><path d="M379 268l18 8"/><path d="M442 288l13 6"/>
    <path d="M44 392l17 7"/><path d="M98 366l14 6"/><path d="M158 408l16 7"/><path d="M228 382l18 8"/><path d="M290 407l16 6"/><path d="M356 382l14 8"/><path d="M420 401l18 5"/>
  </g>
  <g fill="#54614b" opacity="0.08">
    <circle cx="85" cy="52" r="1.4"/><circle cx="238" cy="56" r="1.2"/><circle cx="362" cy="47" r="1.3"/><circle cx="462" cy="74" r="1.5"/>
    <circle cx="54" cy="230" r="1.3"/><circle cx="204" cy="226" r="1.2"/><circle cx="341" cy="239" r="1.4"/><circle cx="432" cy="214" r="1.1"/>
    <circle cx="89" cy="463" r="1.5"/><circle cx="260" cy="454" r="1.3"/><circle cx="378" cy="442" r="1.4"/><circle cx="468" cy="470" r="1.2"/>
  </g>
</svg>